<svg version="1.1" id="Layer_1" xmlns="http://www.w3.org/2000/svg" xmlns:xlink="http://www.w3.org/1999/xlink" x="0px" y="0px"
	 width="100%" viewBox="0 0 535 512" enable-background="new 0 0 535 512" xml:space="preserve">
<path fill="#FF2518" opacity="1.000000" stroke="none" 
	d="
M89.000000,513.000000 
	C59.679535,513.000000 30.359070,513.000000 1.019302,513.000000 
	C1.019302,342.421082 1.019302,171.842148 1.019302,1.000000 
	C130.688568,1.000000 260.377289,1.000000 390.421967,1.316216 
	C378.056976,13.608218 365.245453,25.489489 352.633179,37.578590 
	C322.214142,66.735748 292.024902,96.133743 261.492340,125.171097 
	C217.323166,167.177292 172.901535,208.917892 128.659149,250.847336 
	C118.082985,260.870575 110.332764,272.692261 106.624329,287.012299 
	C105.777580,290.282013 104.261330,293.562134 102.333862,296.338013 
	C90.939682,312.747833 81.389748,330.002563 78.421295,350.063141 
	C74.776016,374.697662 80.431877,396.334808 100.180199,412.971680 
	C100.753105,413.454315 101.632797,413.572754 101.767754,413.625549 
	C96.279045,419.027039 91.462067,423.579712 86.859642,428.339844 
	C79.566895,435.882477 72.408211,443.554962 65.209938,451.188660 
	C53.126278,464.003387 53.610844,479.012146 66.408012,491.199280 
	C73.986244,498.416229 81.472435,505.729858 89.000000,513.000000 
z"/>
<path fill="#FDFDFD" opacity="1.000000" stroke="none" 
	d="
M89.468658,513.000000 
	C81.472435,505.729858 73.986244,498.416229 66.408012,491.199280 
	C53.610844,479.012146 53.126278,464.003387 65.209938,451.188660 
	C72.408211,443.554962 79.566895,435.882477 86.859642,428.339844 
	C91.462067,423.579712 96.279045,419.027039 101.767754,413.625549 
	C101.632797,413.572754 100.753105,413.454315 100.180199,412.971680 
	C80.431877,396.334808 74.776016,374.697662 78.421295,350.063141 
	C81.389748,330.002563 90.939682,312.747833 102.333862,296.338013 
	C104.261330,293.562134 105.777580,290.282013 106.624329,287.012299 
	C110.332764,272.692261 118.082985,260.870575 128.659149,250.847336 
	C172.901535,208.917892 217.323166,167.177292 261.492340,125.171097 
	C292.024902,96.133743 322.214142,66.735748 352.633179,37.578590 
	C365.245453,25.489489 378.056976,13.608218 390.888947,1.316216 
	C410.687561,1.000000 430.375122,1.000000 450.454895,1.329731 
	C418.835876,39.153988 386.774597,76.605957 354.824524,114.152550 
	C299.879028,178.722412 245.013947,243.360703 190.086090,307.945587 
	C181.439621,318.112213 171.214615,326.206482 158.644073,331.081848 
	C157.719177,331.440552 156.525330,331.696106 155.999283,332.403290 
	C149.522461,341.110748 143.385513,350.055359 142.005493,361.176056 
	C141.834641,362.552979 143.628082,365.327637 144.817780,365.515686 
	C149.478226,366.252380 154.434494,367.132751 158.966034,366.282288 
	C171.278641,363.971497 181.676895,357.234924 192.091721,350.583099 
	C208.040955,340.396484 220.304337,326.314117 232.865082,312.572235 
	C247.453873,296.611603 261.698700,280.336517 276.014893,264.285309 
	C263.777191,247.264755 268.889343,234.726379 280.147217,223.538239 
	C288.415253,215.321487 296.208832,206.627975 304.233459,198.165543 
	C317.399963,184.280670 331.814392,183.782303 345.658142,196.826172 
	C377.306122,226.645599 408.921753,256.499329 440.538177,286.352203 
	C468.278381,312.545074 496.020905,338.735626 523.723206,364.968597 
	C534.825928,375.482391 536.754761,389.221222 527.234680,400.625671 
	C516.687805,413.260010 505.047180,425.013031 493.460602,436.732361 
	C488.665802,441.582062 482.076263,444.402924 475.204865,442.932892 
	C468.635590,441.527466 462.409027,438.520203 455.937195,436.182861 
	C454.049286,438.604980 451.635986,442.226044 448.708130,445.367554 
	C435.213623,459.846771 421.512817,474.133698 408.014160,488.609100 
	C400.545746,496.617859 393.329742,504.861969 386.000000,513.000000 
	C374.312439,513.000000 362.624878,513.000000 350.644531,512.717651 
	C354.992981,507.556061 359.634216,502.676849 364.454987,497.608917 
	C306.236023,463.801605 248.625793,430.347748 190.816193,396.778168 
	C195.989243,393.821228 200.885284,391.348511 205.407883,388.318359 
	C208.236008,386.423584 210.276276,386.787903 213.015503,388.387543 
	C248.036026,408.839142 283.120270,429.181702 318.191315,449.546814 
	C337.874084,460.976196 357.562347,472.396118 377.380188,483.896942 
	C384.916809,475.897430 392.304108,468.056427 400.042236,459.843048 
	C345.498596,428.171356 291.461334,396.793701 237.049835,365.198730 
	C240.879547,361.708008 244.152100,358.725128 247.388397,355.775299 
	C301.632538,387.259796 355.503540,418.527679 409.505554,449.871674 
	C417.105133,441.822021 424.496826,433.992584 432.198334,425.834991 
	C373.607269,391.827667 315.473999,358.086029 256.788422,324.023834 
	C255.469879,325.609375 254.353058,327.051483 253.134262,328.401520 
	C246.242386,336.035553 240.010452,344.447876 232.256744,351.078369 
	C220.782806,360.890106 208.699280,370.174622 196.000946,378.320618 
	C181.038055,387.919220 164.698654,395.199524 146.234482,392.944794 
	C127.660561,390.676636 112.564819,379.497101 116.095322,357.104950 
	C116.431259,354.974274 116.907883,352.851837 117.502434,350.778107 
	C121.757492,335.936676 130.159653,323.419403 139.674057,311.549194 
	C140.344940,310.712158 141.414993,309.848755 142.416595,309.675751 
	C154.866425,307.525146 163.597260,299.751587 171.379700,290.601807 
	C224.258270,228.432678 277.128021,166.256027 329.949554,104.038437 
	C341.143036,90.853828 352.125580,77.490112 363.475739,64.134811 
	C363.847626,63.723534 363.949036,63.386341 364.332153,63.030262 
	C364.655426,62.774513 364.696930,62.537651 364.738464,62.300789 
	C364.422028,62.448441 364.105591,62.596100 363.521790,62.772568 
	C363.058350,63.092155 362.862305,63.382935 362.358276,63.802608 
	C320.871918,103.337929 279.765137,142.819580 238.491531,182.126053 
	C207.596588,211.548553 176.428345,240.684021 145.511993,270.084198 
	C137.414093,277.785004 131.348373,286.789856 130.068878,298.386780 
	C129.815567,300.682709 128.967514,303.222412 127.586800,305.035034 
	C117.752914,317.944946 109.201118,331.470825 104.554939,347.239227 
	C96.582603,374.296051 109.016487,397.406219 135.698349,404.758667 
	C149.376007,408.527710 162.728378,406.789276 175.947006,402.509827 
	C178.773178,401.594879 181.597031,400.672821 184.421951,399.754059 
	C184.557663,400.059845 184.693390,400.365662 184.829102,400.671478 
	C178.872742,407.030457 172.916367,413.389435 166.769897,419.951355 
	C168.682755,421.118958 170.070236,422.002899 171.491776,422.828217 
	C220.951782,451.542938 270.417572,480.247711 319.868835,508.977448 
	C321.979218,510.203522 323.959259,511.654022 326.000000,513.000000 
	C313.645782,513.000000 301.291534,513.000000 288.729675,512.695618 
	C286.883209,511.286499 285.301849,510.082855 283.596893,509.091827 
	C254.583023,492.227783 225.553482,475.390717 196.528229,458.546295 
	C182.320328,450.300903 168.114151,442.052551 153.706253,433.688904 
	C148.565826,439.138550 143.589203,444.414551 138.515961,449.792938 
	C139.229385,450.602112 139.631821,451.104156 140.080444,451.560822 
	C158.329254,470.134552 177.678436,487.228180 201.427750,498.702911 
	C208.289032,502.017975 214.714417,506.242126 221.295944,510.123566 
	C222.631531,510.911285 223.770432,512.032532 225.000000,513.000000 
	C213.645767,513.000000 202.291550,513.000000 190.773041,512.733826 
	C189.859116,511.591675 189.182343,510.638580 188.349182,509.850922 
	C163.653854,486.503845 138.944199,463.171906 114.227066,439.847900 
	C113.685059,439.336456 113.029633,438.945160 112.329811,438.425568 
	C101.851128,449.525299 91.603500,460.380249 81.318825,471.274475 
	C96.120399,485.413391 110.560188,499.206696 124.999992,513.000000 
	C113.312439,513.000000 101.624878,513.000000 89.468658,513.000000 
M458.728271,339.772217 
	C414.195526,297.702484 369.662781,255.632751 324.937378,213.381027 
	C314.307404,224.641739 304.052856,235.504715 293.635681,246.539963 
	C354.511871,304.021057 415.138306,361.266327 475.916718,418.655090 
	C486.610107,407.315063 496.841248,396.465240 507.165527,385.516602 
	C490.980438,370.224884 475.116425,355.236542 458.728271,339.772217 
M402.544922,364.955597 
	C370.225677,334.422058 337.906464,303.888489 305.373566,273.153046 
	C293.563904,285.655182 281.920776,297.981018 270.083832,310.512024 
	C328.642639,344.509155 386.837372,378.294922 445.125244,412.134766 
	C446.329987,410.832916 447.328247,409.754150 448.560638,408.422394 
	C433.307098,394.013672 418.183594,379.727783 402.544922,364.955597 
z"/>
<path fill="#FF2519" opacity="1.000000" stroke="none" 
	d="
M386.468658,513.000000 
	C393.329742,504.861969 400.545746,496.617859 408.014160,488.609100 
	C421.512817,474.133698 435.213623,459.846771 448.708130,445.367554 
	C451.635986,442.226044 454.049286,438.604980 455.937195,436.182861 
	C462.409027,438.520203 468.635590,441.527466 475.204865,442.932892 
	C482.076263,444.402924 488.665802,441.582062 493.460602,436.732361 
	C505.047180,425.013031 516.687805,413.260010 527.234680,400.625671 
	C536.754761,389.221222 534.825928,375.482391 523.723206,364.968597 
	C496.020905,338.735626 468.278381,312.545074 440.538177,286.352203 
	C408.921753,256.499329 377.306122,226.645599 345.658142,196.826172 
	C331.814392,183.782303 317.399963,184.280670 304.233459,198.165543 
	C296.208832,206.627975 288.415253,215.321487 280.147217,223.538239 
	C268.889343,234.726379 263.777191,247.264755 276.014893,264.285309 
	C261.698700,280.336517 247.453873,296.611603 232.865082,312.572235 
	C220.304337,326.314117 208.040955,340.396484 192.091721,350.583099 
	C181.676895,357.234924 171.278641,363.971497 158.966034,366.282288 
	C154.434494,367.132751 149.478226,366.252380 144.817780,365.515686 
	C143.628082,365.327637 141.834641,362.552979 142.005493,361.176056 
	C143.385513,350.055359 149.522461,341.110748 155.999283,332.403290 
	C156.525330,331.696106 157.719177,331.440552 158.644073,331.081848 
	C171.214615,326.206482 181.439621,318.112213 190.086090,307.945587 
	C245.013947,243.360703 299.879028,178.722412 354.824524,114.152550 
	C386.774597,76.605957 418.835876,39.153988 450.923584,1.329731 
	C479.316742,1.000000 507.633514,1.000000 535.975098,1.000000 
	C535.975098,171.550140 535.975098,342.100311 535.975098,513.000000 
	C486.312988,513.000000 436.625153,513.000000 386.468658,513.000000 
z"/>
<path fill="#030303" opacity="1.000000" stroke="none" 
	d="
M363.205292,64.208908 
	C352.125580,77.490112 341.143036,90.853828 329.949554,104.038437 
	C277.128021,166.256027 224.258270,228.432678 171.379700,290.601807 
	C163.597260,299.751587 154.866425,307.525146 142.416595,309.675751 
	C141.414993,309.848755 140.344940,310.712158 139.674057,311.549194 
	C130.159653,323.419403 121.757492,335.936676 117.502434,350.778107 
	C116.907883,352.851837 116.431259,354.974274 116.095322,357.104950 
	C112.564819,379.497101 127.660561,390.676636 146.234482,392.944794 
	C164.698654,395.199524 181.038055,387.919220 196.000946,378.320618 
	C208.699280,370.174622 220.782806,360.890106 232.256744,351.078369 
	C240.010452,344.447876 246.242386,336.035553 253.134262,328.401520 
	C254.353058,327.051483 255.469879,325.609375 256.788422,324.023834 
	C315.473999,358.086029 373.607269,391.827667 432.198334,425.834991 
	C424.496826,433.992584 417.105133,441.822021 409.505554,449.871674 
	C355.503540,418.527679 301.632538,387.259796 247.388397,355.775299 
	C244.152100,358.725128 240.879547,361.708008 237.049835,365.198730 
	C291.461334,396.793701 345.498596,428.171356 400.042236,459.843048 
	C392.304108,468.056427 384.916809,475.897430 377.380188,483.896942 
	C357.562347,472.396118 337.874084,460.976196 318.191315,449.546814 
	C283.120270,429.181702 248.036026,408.839142 213.015503,388.387543 
	C210.276276,386.787903 208.236008,386.423584 205.407883,388.318359 
	C200.885284,391.348511 195.989243,393.821228 190.816193,396.778168 
	C248.625793,430.347748 306.236023,463.801605 364.454987,497.608917 
	C359.634216,502.676849 354.992981,507.556061 350.175903,512.717651 
	C342.312408,513.000000 334.624847,513.000000 326.468628,513.000000 
	C323.959259,511.654022 321.979218,510.203522 319.868835,508.977448 
	C270.417572,480.247711 220.951782,451.542938 171.491776,422.828217 
	C170.070236,422.002899 168.682755,421.118958 166.769897,419.951355 
	C172.916367,413.389435 178.872742,407.030457 184.829102,400.671478 
	C184.693390,400.365662 184.557663,400.059845 184.421951,399.754059 
	C181.597031,400.672821 178.773178,401.594879 175.947006,402.509827 
	C162.728378,406.789276 149.376007,408.527710 135.698349,404.758667 
	C109.016487,397.406219 96.582603,374.296051 104.554939,347.239227 
	C109.201118,331.470825 117.752914,317.944946 127.586800,305.035034 
	C128.967514,303.222412 129.815567,300.682709 130.068878,298.386780 
	C131.348373,286.789856 137.414093,277.785004 145.511993,270.084198 
	C176.428345,240.684021 207.596588,211.548553 238.491531,182.126053 
	C279.765137,142.819580 320.871918,103.337929 362.493713,63.935768 
	C362.937042,63.940029 363.205292,64.208908 363.205292,64.208908 
M166.445892,283.862671 
	C167.992294,280.251099 170.028885,276.758453 170.942307,272.993347 
	C171.794708,269.479858 169.440857,267.537048 165.926193,268.447937 
	C156.851974,270.799683 150.946655,277.134125 145.522369,284.810455 
	C153.260712,285.209198 155.233093,287.606445 155.293076,295.648773 
	C158.858917,291.907074 162.424759,288.165375 166.445892,283.862671 
z"/>
<path fill="#020202" opacity="1.000000" stroke="none" 
	d="
M225.468658,513.000000 
	C223.770432,512.032532 222.631531,510.911285 221.295944,510.123566 
	C214.714417,506.242126 208.289032,502.017975 201.427750,498.702911 
	C177.678436,487.228180 158.329254,470.134552 140.080444,451.560822 
	C139.631821,451.104156 139.229385,450.602112 138.515961,449.792938 
	C143.589203,444.414551 148.565826,439.138550 153.706253,433.688904 
	C168.114151,442.052551 182.320328,450.300903 196.528229,458.546295 
	C225.553482,475.390717 254.583023,492.227783 283.596893,509.091827 
	C285.301849,510.082855 286.883209,511.286499 288.261047,512.695618 
	C267.312439,513.000000 246.624878,513.000000 225.468658,513.000000 
z"/>
<path fill="#020202" opacity="1.000000" stroke="none" 
	d="
M125.468651,513.000000 
	C110.560188,499.206696 96.120399,485.413391 81.318825,471.274475 
	C91.603500,460.380249 101.851128,449.525299 112.329811,438.425568 
	C113.029633,438.945160 113.685059,439.336456 114.227066,439.847900 
	C138.944199,463.171906 163.653854,486.503845 188.349182,509.850922 
	C189.182343,510.638580 189.859116,511.591675 190.304382,512.733826 
	C168.645767,513.000000 147.291550,513.000000 125.468651,513.000000 
z"/>
<path fill="#020202" opacity="1.000000" stroke="none" 
	d="
M458.990356,340.010193 
	C475.116425,355.236542 490.980438,370.224884 507.165527,385.516602 
	C496.841248,396.465240 486.610107,407.315063 475.916718,418.655090 
	C415.138306,361.266327 354.511871,304.021057 293.635681,246.539963 
	C304.052856,235.504715 314.307404,224.641739 324.937378,213.381027 
	C369.662781,255.632751 414.195526,297.702484 458.990356,340.010193 
z"/>
<path fill="#020202" opacity="1.000000" stroke="none" 
	d="
M402.802490,365.198730 
	C418.183594,379.727783 433.307098,394.013672 448.560638,408.422394 
	C447.328247,409.754150 446.329987,410.832916 445.125244,412.134766 
	C386.837372,378.294922 328.642639,344.509155 270.083832,310.512024 
	C281.920776,297.981018 293.563904,285.655182 305.373566,273.153046 
	C337.906464,303.888489 370.225677,334.422058 402.802490,365.198730 
z"/>
<path fill="#030303" opacity="1.000000" stroke="none" 
	d="
M363.789154,62.743759 
	C364.105591,62.596100 364.422028,62.448441 364.738464,62.300789 
	C364.696930,62.537651 364.655426,62.774513 364.264465,62.955929 
	C363.915009,62.900482 363.789154,62.743763 363.789154,62.743759 
z"/>
<path fill="#030303" opacity="1.000000" stroke="none" 
	d="
M362.801636,63.806870 
	C362.862305,63.382935 363.058350,63.092155 363.521790,62.772568 
	C363.789154,62.743763 363.915009,62.900482 363.982727,62.974815 
	C363.949036,63.386341 363.847626,63.723534 363.475739,64.134811 
	C363.205292,64.208908 362.937042,63.940029 362.801636,63.806870 
z"/>
<path fill="#F8F8F8" opacity="1.000000" stroke="none" 
	d="
M166.218246,284.143188 
	C162.424759,288.165375 158.858917,291.907074 155.293076,295.648773 
	C155.233093,287.606445 153.260712,285.209198 145.522369,284.810455 
	C150.946655,277.134125 156.851974,270.799683 165.926193,268.447937 
	C169.440857,267.537048 171.794708,269.479858 170.942307,272.993347 
	C170.028885,276.758453 167.992294,280.251099 166.218246,284.143188 
z"/>
</svg>