<svg version="1.1" id="Layer_1" xmlns="http://www.w3.org/2000/svg" xmlns:xlink="http://www.w3.org/1999/xlink" x="0px" y="0px"
	 width="100%" viewBox="0 0 164 164" enable-background="new 0 0 164 164" xml:space="preserve">
<path fill="#4C6971" opacity="1.000000" stroke="none" 
	d="
M61.000000,165.000000 
	C41.029003,165.000000 21.058010,165.000000 1.043507,165.000000 
	C1.043507,110.441650 1.043507,55.883251 1.043507,1.000000 
	C26.686647,1.000000 52.374664,1.000000 78.366989,1.308264 
	C65.356812,9.205642 52.042324,16.794754 38.174427,24.699305 
	C48.197575,30.390158 57.096695,35.405499 65.959976,40.483395 
	C81.399643,49.328991 96.812119,58.222038 112.248695,67.073044 
	C115.056335,68.682884 116.113754,70.829193 116.091682,74.240433 
	C115.923653,100.219589 115.994080,126.200348 116.012627,152.180573 
	C116.013969,154.060455 116.191689,155.940201 116.280098,157.676559 
	C117.296387,157.782196 117.706146,157.961609 117.939171,157.829453 
	C131.406555,150.190323 144.885452,142.570206 158.259232,134.769913 
	C159.232559,134.202225 159.916840,132.310349 159.921051,131.031433 
	C160.014420,102.719940 160.029175,74.407890 159.887619,46.096809 
	C159.880432,44.657944 158.697037,42.624969 157.455673,41.886112 
	C146.413651,35.313881 135.223236,28.991520 124.099892,22.555204 
	C111.720543,15.392126 99.365578,8.186886 87.000000,1.000000 
	C112.966797,1.000000 138.933594,1.000000 164.950195,1.000000 
	C164.950195,55.563618 164.950195,110.127289 164.950195,165.000000 
	C131.646408,165.000000 98.291862,165.000000 64.632263,164.692200 
	C74.349312,158.675873 84.212257,152.657043 94.464859,147.397842 
	C99.152916,144.993042 101.021751,141.842499 101.012276,136.925247 
	C100.976990,118.609253 100.939117,100.292763 101.059082,81.977486 
	C101.077934,79.098419 100.073730,77.561470 97.595894,76.149109 
	C81.735352,67.108490 65.952644,57.930298 50.196754,48.707821 
	C46.207859,46.372986 42.586208,46.440113 38.601974,48.847382 
	C31.997705,52.837673 25.144409,56.413467 18.486847,60.318714 
	C14.163817,62.854553 10.002045,65.665298 5.311903,68.642403 
	C6.915993,70.154747 7.721641,71.259422 8.804342,71.883293 
	C24.932276,81.176575 41.024048,90.538147 57.318314,99.532211 
	C60.333710,101.196640 61.074451,102.938751 61.056564,106.055908 
	C60.943840,125.703400 60.999783,145.351852 61.000000,165.000000 
M16.488461,139.991623 
	C25.669260,145.331421 34.850060,150.671234 44.512077,156.290924 
	C44.512077,140.446640 44.512077,125.390083 44.512077,109.671722 
	C40.207809,112.226105 36.566380,114.416092 32.897255,116.558670 
	C24.663557,121.366722 16.427969,126.171806 8.168228,130.934875 
	C5.007049,132.757812 5.518178,134.285126 8.409083,135.740402 
	C10.913426,137.001083 13.424314,138.248749 16.488461,139.991623 
z"/>
<path fill="#5CE500" opacity="1.000000" stroke="none" 
	d="
M86.555832,1.000000 
	C99.365578,8.186886 111.720543,15.392126 124.099892,22.555204 
	C135.223236,28.991520 146.413651,35.313881 157.455673,41.886112 
	C158.697037,42.624969 159.880432,44.657944 159.887619,46.096809 
	C160.029175,74.407890 160.014420,102.719940 159.921051,131.031433 
	C159.916840,132.310349 159.232559,134.202225 158.259232,134.769913 
	C144.885452,142.570206 131.406555,150.190323 117.939171,157.829453 
	C117.706146,157.961609 117.296387,157.782196 116.280098,157.676559 
	C116.191689,155.940201 116.013969,154.060455 116.012627,152.180573 
	C115.994080,126.200348 115.923653,100.219589 116.091682,74.240433 
	C116.113754,70.829193 115.056335,68.682884 112.248695,67.073044 
	C96.812119,58.222038 81.399643,49.328991 65.959976,40.483395 
	C57.096695,35.405499 48.197575,30.390158 38.174427,24.699305 
	C52.042324,16.794754 65.356812,9.205642 78.835648,1.308264 
	C81.370560,1.000000 83.741112,1.000000 86.555832,1.000000 
z"/>
<path fill="#5CE500" opacity="1.000000" stroke="none" 
	d="
M61.375000,165.000000 
	C60.999783,145.351852 60.943840,125.703400 61.056564,106.055908 
	C61.074451,102.938751 60.333710,101.196640 57.318314,99.532211 
	C41.024048,90.538147 24.932276,81.176575 8.804342,71.883293 
	C7.721641,71.259422 6.915993,70.154747 5.311903,68.642403 
	C10.002045,65.665298 14.163817,62.854553 18.486847,60.318714 
	C25.144409,56.413467 31.997705,52.837673 38.601974,48.847382 
	C42.586208,46.440113 46.207859,46.372986 50.196754,48.707821 
	C65.952644,57.930298 81.735352,67.108490 97.595894,76.149109 
	C100.073730,77.561470 101.077934,79.098419 101.059082,81.977486 
	C100.939117,100.292763 100.976990,118.609253 101.012276,136.925247 
	C101.021751,141.842499 99.152916,144.993042 94.464859,147.397842 
	C84.212257,152.657043 74.349312,158.675873 64.163605,164.692200 
	C63.250000,165.000000 62.500000,165.000000 61.375000,165.000000 
z"/>
<path fill="#5CE500" opacity="1.000000" stroke="none" 
	d="
M16.210384,139.746902 
	C13.424314,138.248749 10.913426,137.001083 8.409083,135.740402 
	C5.518178,134.285126 5.007049,132.757812 8.168228,130.934875 
	C16.427969,126.171806 24.663557,121.366722 32.897255,116.558670 
	C36.566380,114.416092 40.207809,112.226105 44.512077,109.671722 
	C44.512077,125.390083 44.512077,140.446640 44.512077,156.290924 
	C34.850060,150.671234 25.669260,145.331421 16.210384,139.746902 
z"/>
</svg>